<?xml version="1.0" encoding="UTF-8" standalone="no"?>
<svg
   xmlns:dc="http://purl.org/dc/elements/1.1/"
   xmlns:cc="http://creativecommons.org/ns#"
   xmlns:rdf="http://www.w3.org/1999/02/22-rdf-syntax-ns#"
   xmlns:svg="http://www.w3.org/2000/svg"
   xmlns="http://www.w3.org/2000/svg"
   xmlns:sodipodi="http://sodipodi.sourceforge.net/DTD/sodipodi-0.dtd"
   xmlns:inkscape="http://www.inkscape.org/namespaces/inkscape"
   version="1.1"
   id="Capa_1"
   x="0px"
   y="0px"
   viewBox="0 0 58 58"
   style="enable-background:new 0 0 58 58;"
   xml:space="preserve"
   sodipodi:docname="microphone-deactivated.svg"
   inkscape:version="1.0.2-2 (e86c870879, 2021-01-15)"><metadata
   id="metadata43"><rdf:RDF><cc:Work
       rdf:about=""><dc:format>image/svg+xml</dc:format><dc:type
         rdf:resource="http://purl.org/dc/dcmitype/StillImage" /><dc:title></dc:title></cc:Work></rdf:RDF></metadata><defs
   id="defs41" /><sodipodi:namedview
   pagecolor="#ffffff"
   bordercolor="#666666"
   borderopacity="1"
   objecttolerance="10"
   gridtolerance="10"
   guidetolerance="10"
   inkscape:pageopacity="0"
   inkscape:pageshadow="2"
   inkscape:window-width="2400"
   inkscape:window-height="1271"
   id="namedview39"
   showgrid="false"
   inkscape:zoom="11.787772"
   inkscape:cx="-0.37169563"
   inkscape:cy="29.520743"
   inkscape:window-x="2391"
   inkscape:window-y="-9"
   inkscape:window-maximized="1"
   inkscape:current-layer="Capa_1"
   inkscape:document-rotation="0" />
<g
   id="g6"
   style="fill:#b3b3b3"
   transform="translate(-0.66554888)">
	<path
   d="m 44,28 c -0.552,0 -1,0.447 -1,1 v 6 C 43,42.72 36.72,49 29,49 21.28,49 15,42.72 15,35 v -6 c 0,-0.553 -0.448,-1 -1,-1 -0.552,0 -1,0.447 -1,1 v 6 c 0,8.485 6.644,15.429 15,15.949 V 56 h -5 c -0.552,0 -1,0.447 -1,1 0,0.553 0.448,1 1,1 h 12 c 0.552,0 1,-0.447 1,-1 0,-0.553 -0.448,-1 -1,-1 H 30 V 50.949 C 38.356,50.429 45,43.484 45,35 v -6 c 0,-0.553 -0.448,-1 -1,-1 z"
   id="path2"
   style="fill:#b3b3b3" />
	<path
   d="m 29,46 c 6.065,0 11,-4.935 11,-11 V 11 C 40,4.935 35.065,0 29,0 22.935,0 18,4.935 18,11 v 24 c 0,6.065 4.935,11 11,11 z"
   id="path4"
   style="fill:#b3b3b3" />
</g>
<g
   id="g8">
</g>
<g
   id="g10">
</g>
<g
   id="g12">
</g>
<g
   id="g14">
</g>
<g
   id="g16">
</g>
<g
   id="g18">
</g>
<g
   id="g20">
</g>
<g
   id="g22">
</g>
<g
   id="g24">
</g>
<g
   id="g26">
</g>
<g
   id="g28">
</g>
<g
   id="g30">
</g>
<g
   id="g32">
</g>
<g
   id="g34">
</g>
<g
   id="g36">
</g>
<rect
   style="fill:#ff8080;fill-opacity:1;stroke:#ffffff;stroke-width:1.43354;stroke-miterlimit:4;stroke-dasharray:none;stroke-opacity:1"
   id="rect871"
   width="60.062241"
   height="3.1380801"
   x="-33.023693"
   y="38.864677"
   transform="rotate(-48.567779)" /></svg>
