<?xml version="1.0" encoding="UTF-8" standalone="no"?>
<svg
   xmlns:dc="http://purl.org/dc/elements/1.1/"
   xmlns:cc="http://creativecommons.org/ns#"
   xmlns:rdf="http://www.w3.org/1999/02/22-rdf-syntax-ns#"
   xmlns:svg="http://www.w3.org/2000/svg"
   xmlns="http://www.w3.org/2000/svg"
   xmlns:sodipodi="http://sodipodi.sourceforge.net/DTD/sodipodi-0.dtd"
   xmlns:inkscape="http://www.inkscape.org/namespaces/inkscape"
   version="1.1"
   id="Layer_1"
   x="0px"
   y="0px"
   viewBox="0 0 60.000001 76.468621"
   xml:space="preserve"
   sodipodi:docname="user.svg"
   width="60"
   height="76.46862"
   inkscape:version="1.0.2-2 (e86c870879, 2021-01-15)"><metadata
   id="metadata41"><rdf:RDF><cc:Work
       rdf:about=""><dc:format>image/svg+xml</dc:format><dc:type
         rdf:resource="http://purl.org/dc/dcmitype/StillImage" /><dc:title></dc:title></cc:Work></rdf:RDF></metadata><defs
   id="defs39" /><sodipodi:namedview
   pagecolor="#ffffff"
   bordercolor="#666666"
   borderopacity="1"
   objecttolerance="10"
   gridtolerance="10"
   guidetolerance="10"
   inkscape:pageopacity="0"
   inkscape:pageshadow="2"
   inkscape:window-width="2400"
   inkscape:window-height="1271"
   id="namedview37"
   showgrid="false"
   fit-margin-top="0"
   fit-margin-left="0"
   fit-margin-right="0"
   fit-margin-bottom="0"
   inkscape:zoom="0.96740851"
   inkscape:cx="87.847615"
   inkscape:cy="400.74339"
   inkscape:window-x="2391"
   inkscape:window-y="-9"
   inkscape:window-maximized="1"
   inkscape:current-layer="Layer_1" />

<g
   id="g868"
   transform="matrix(0.19640577,0,0,0.19640577,-8.2343119,0)"><path
     style="fill:#1ea6c6"
     d="m 347.415,330.3 c 0,0.04 0,0.08 0,0.13 -40.37,36.61 -93.96,58.91 -152.74,58.91 -58.79,0 -112.38,-22.3 -152.75,-58.91 0,-0.05 0,-0.09 0,-0.13 0,-60.89 35.63,-113.45 87.17,-137.98 19.37,19.32 42.05,29.73 65.58,29.73 23.54,0 46.21,-10.41 65.59,-29.73 51.54,24.53 87.15,77.09 87.15,137.98 z"
     id="path2" /><path
     style="fill:#fcd09f"
     d="m 194.675,0 c 46.66,0 84.49,37.82 84.49,84.48 0,46.67 -37.83,110.49 -84.49,110.49 -46.66,0 -84.49,-63.82 -84.49,-110.49 0,-46.66 37.83,-84.48 84.49,-84.48 z"
     id="path4" /></g>
<g
   id="g6"
   transform="translate(-41.925)">
</g>
<g
   id="g8"
   transform="translate(-41.925)">
</g>
<g
   id="g10"
   transform="translate(-41.925)">
</g>
<g
   id="g12"
   transform="translate(-41.925)">
</g>
<g
   id="g14"
   transform="translate(-41.925)">
</g>
<g
   id="g16"
   transform="translate(-41.925)">
</g>
<g
   id="g18"
   transform="translate(-41.925)">
</g>
<g
   id="g20"
   transform="translate(-41.925)">
</g>
<g
   id="g22"
   transform="translate(-41.925)">
</g>
<g
   id="g24"
   transform="translate(-41.925)">
</g>
<g
   id="g26"
   transform="translate(-41.925)">
</g>
<g
   id="g28"
   transform="translate(-41.925)">
</g>
<g
   id="g30"
   transform="translate(-41.925)">
</g>
<g
   id="g32"
   transform="translate(-41.925)">
</g>
<g
   id="g34"
   transform="translate(-41.925)">
</g>
</svg>
